<?xml version="1.0" encoding="UTF-8"?>
<svg version="1.1" viewBox="0 0 869 869" width="300" height="91" xmlns="http://www.w3.org/2000/svg">
<path transform="translate(0)" d="m0 0h869v869h-869z" fill="#FBFBFB"/>
<path transform="translate(283,250)" d="m0 0h27l17 3 18 6 16 8 12 8 14 12 10 11 10 15 8 16 6 18 3 19v140l-1 1h-130l-20-2-19-5-16-7-11-6-12-9-10-9-7-7-11-15-11-21-5-15-3-16-1-11v-13l2-17 5-19 8-18 9-14 9-11 11-11 15-11 14-8 18-7 17-4z" fill="#53F26F"/>
<path transform="translate(439,250)" d="m0 0h250l-1 4-14 19-13 18-12 17-13 18-13 19-26 36-24 34-13 18-14 19-2 3 151 1v51h-252l6-9 26-36 10-14 13-18 14-20 13-18 14-19 12-17 13-18 10-14 13-18 2-3-150-1-1-1v-50z" fill="#53F26F"/>
<path transform="translate(288,301)" d="m0 0h16l15 3 16 7 11 8 11 11 8 13 5 12 3 16v84h-89l-15-4-16-8-9-7-9-9-7-11-6-13-3-13v-24l4-15 8-16 8-10 10-9 14-8 13-5z" fill="#FBFBFB"/>
<path transform="translate(273,555)" d="m0 0h15l10 4 8 6 6 9 3 9v41l-4 11-9 10-8 5-7 2h-6v-14l10-3 5-4 4-7v-5l-9 4-4 1h-14l-10-4-9-7-6-10-2-6v-15l4-10 6-8 8-6z" fill="#727376"/>
<path transform="translate(653,555)" d="m0 0h15l10 4 10 9 6 12 1 5v9l-3 10-6 9-8 7-11 4h-14l-11-4-3-2v34h-14v-66l2-9 6-10 9-8z" fill="#727376"/>
<path transform="translate(196,555)" d="m0 0h15l9 3 9 7 6 8 3 8 1 7v36h-14v-6l-10 5-4 1h-14l-11-4-10-9-4-6-3-10v-11l3-10 6-8 8-7z" fill="#727376"/>
<path transform="translate(576,555)" d="m0 0h15l10 4 8 6 6 9 3 9v41h-14l-1-5-9 4-4 1h-14l-10-4-9-7-6-10-2-6v-15l3-9 7-9 8-6z" fill="#727376"/>
<path transform="translate(391,555)" d="m0 0h15l11 4 10 9 5 9 2 14-1 5h-54l6 9 7 4h13l6-3 4-3h15l-1 5-8 9-9 5-6 2h-14l-11-4-10-9-4-6-3-10v-11l3-10 6-8 8-7z" fill="#727376"/>
<path transform="translate(476,556)" d="m0 0h66l-2 5-10 13-11 16-13 18-2 3h40v13h-66l4-7 26-36 7-10 1-2h-40z" fill="#727376"/>
<path transform="translate(202,568)" d="m0 0 11 2 8 7 3 5 1 4v7l-3 8-7 7-5 2h-13l-9-6-4-6-1-3v-11l4-8 6-5z" fill="#FBFBFB"/>
<path transform="translate(659,568)" d="m0 0 10 2 8 6 4 9v9l-5 10-7 5-3 1h-12l-6-3-5-5-4-8v-9l5-10 9-6z" fill="#FBFBFB"/>
<path transform="translate(582,568)" d="m0 0 11 2 8 7 3 6v13l-5 8-5 4-4 2h-13l-8-5-5-6-2-7 1-9 3-6 8-7z" fill="#FBFBFB"/>
<path transform="translate(279,568)" d="m0 0 11 2 8 7 3 6v13l-5 8-5 4-4 2h-13l-8-5-5-6-2-11 3-9 6-7 6-3z" fill="#FBFBFB"/>
<path transform="translate(343,527)" d="m0 0h14v97h-14z" fill="#727376"/>
<path transform="translate(322,555)" d="m0 0h14v69h-14z" fill="#727376"/>
<path transform="translate(397,568)" d="m0 0 11 2 6 4 4 6v3h-39l2-5 5-6 6-3z" fill="#FBFBFB"/>
<path transform="translate(322,527)" d="m0 0h14v14h-13l-1-1z" fill="#727376"/>
</svg>
