<?xml version="1.0" encoding="UTF-8"?>
<svg version="1.1" viewBox="0 0 800 800" width="300" height="91" xmlns="http://www.w3.org/2000/svg">
<path transform="translate(0)" d="m0 0h800v800h-800z" fill="#FEFEFE"/>
<path transform="translate(90,263)" d="m0 0h302l7 3 7 8 1 3 1 68v99l-2 8-5 6-6 3-5 1h-303l-8-5-4-5-2-6v-168l4-8 8-6z" fill="#0D64A7"/>
<path transform="translate(147,328)" d="m0 0h15l11 3 9 5 6 5v-9l2-1 30 1 1 1v111l-1 1-30 1-3-1v-8l-8 6-8 4-11 2h-12l-14-4-11-7-8-8-7-11-5-14-2-14 1-15 5-16 8-13 8-8 10-6 10-4z" fill="#FEFEFE"/>
<path transform="translate(464,327)" d="m0 0h22l15 4 13 7 12 11 8 13 4 11 2 12v8l-4 17-6 11-9 11-11 8-12 6-12 3h-20l-12-3-14-7-9-7-8-9-6-10-4-12-1-7v-12l4-16 6-12 11-12 10-7 13-6z" fill="#37383A"/>
<path transform="translate(279,288)" d="m0 0h34l1 85 9-10 18-22 8-9h40l-1 4-10 11-8 10-10 12-8 11 2 5 12 16 13 18 10 14 7 10v2l-40 1-4-2-26-36-12-16v52l-1 1h-34l-1-156z" fill="#FEFEFE"/>
<path transform="translate(588,327)" d="m0 0h16l13 3 10 5 9 8 5 8 4 13 1 10v47l-1 25h-25l-9-1-1-72-3-9-4-3-9-1-6 3-4 6-1 76-1 1h-22l-12-1v-77l4-16 6-10 8-7 10-5z" fill="#36393B"/>
<path transform="translate(676,287)" d="m0 0 33 1v43h22l1 2-7 28-1 1-14 1v36l2 9 5 4 8 2h11l-2 11-6 21-2 3h-15l-12-3-8-4-9-9-5-10-2-9-1-51-21-1-1-3 7-26 2-2 13-1v-42z" fill="#37383A"/>
<path transform="translate(263,331)" d="m0 0 5 1v113l-3 1h-28l-4-2v-111l1-1z" fill="#FEFEFE"/>
<path transform="translate(472,359)" d="m0 0h7l10 3 8 6 6 9 2 8-1 12-6 10-7 6-7 3-12 1-10-3-10-9-4-8-1-5v-10l4-9 7-8 9-5z" fill="#FEFEFE"/>
<path transform="translate(154,361)" d="m0 0h14l10 5 6 7 4 11v10l-4 10-6 7-10 5h-13l-9-4-8-9-3-10v-10l3-9 6-8z" fill="#0D65A8"/>
<path transform="translate(603,475)" d="m0 0 9 1 6 4 4 13-2 7-8 7-10 1-6-3-5-6-1-3v-10l4-7 5-3z" fill="#343B42"/>
<path transform="translate(139,475)" d="m0 0 10 1 7 6 2 5v9l-4 6-4 4-3 1h-11l-6-4-4-8v-8l3-6 6-5z" fill="#353A3F"/>
<path transform="translate(373,476)" d="m0 0h18l5 3 3 4 1 4v8l-3 7-5 4-2 1h-16l-1-3z" fill="#343B41"/>
<path transform="translate(447,476)" d="m0 0h18l6 4 3 8v7l-3 7-5 4-3 1h-15l-1-3z" fill="#36393D"/>
<path transform="translate(533,475)" d="m0 0 17 1 5 3 3 6 1 10-4 8-7 4h-16v-31z" fill="#353A3E"/>
<path transform="translate(234,304)" d="m0 0h33l1 1v19l-4 1-30-1-1-1v-18z" fill="#FEFEFE"/>
<path transform="translate(272,476)" d="m0 0h16l3 3v9 3l2 3-1 9-3 3-3 1h-13l-1-1z" fill="#36393D"/>
<path transform="translate(170,475)" d="m0 0 7 1 7 10 4 6 1-17h6l1 1v31h-6l-12-15v-2h-2l1 6v11h-7z" fill="#36393D"/>
<path transform="translate(690,475)" d="m0 0 5 1 8 19 3 9v4l-7-2-1-3h-12l-1 4h-8l3-10 8-19z" fill="#343C43"/>
<path transform="translate(421,475)" d="m0 0 5 1 5 11 7 18-1 3-7-2-2-3h-7l-4 2-1 2h-7l1-6 9-24z" fill="#333C43"/>
<path transform="translate(246,475)" d="m0 0 5 1 8 21 3 8v3l-7-1-2-4-12-1-1 5-5 1-2-1 3-11 8-19z" fill="#343B41"/>
<path transform="translate(98,475)" d="m0 0 10 2 6 7 1 4-7-1-5-4-9 1-2 3v9l4 4 7-1 9-4h3l-1 5-7 6-2 1h-11l-6-4-4-6v-12l4-6 5-3z" fill="#343B41"/>
<path transform="translate(486,476)" d="m0 0h17v6h-10v6h10v6l-10 1v6h10v6h-17z" fill="#36393D"/>
<path transform="translate(652,476)" d="m0 0h19l1 3-1 3-4 1-2-1v14l-1 11h-7v-24l-5-1-1-5z" fill="#323E47"/>
<path transform="translate(207,476)" d="m0 0h20v5l-6 2-1 24h-7l-1-23-5-3-1-4z" fill="#37383B"/>
<path transform="translate(326,476)" d="m0 0h7v25h10v5l-1 1h-16l-1-7z" fill="#333D45"/>
<path transform="translate(717,475)" d="m0 0 6 1v25h8l2 4-2 2h-14l-1-1v-30z" fill="#343B42"/>
<path transform="translate(140,482)" d="m0 0 7 1 4 5v7l-5 5-7 1-5-5-1-2v-6l4-5z" fill="#FEFEFE"/>
<path transform="translate(381,482)" d="m0 0h7l5 3v11l-3 4-9 1-1-2v-16z" fill="#FEFEFE"/>
<path transform="translate(570,476)" d="m0 0h8l1 31h-8l-1-2z" fill="#37383B"/>
<path transform="translate(354,475)" d="m0 0 6 1v31h-7v-31z" fill="#36393D"/>
<path transform="translate(605,482)" d="m0 0 7 1 5 5-1 4-3-2h-6l-2 1v4l8 1-2 4-1 1h-8l-5-6v-7l4-5z" fill="#FEFEFE"/>
<path transform="translate(455,482)" d="m0 0h7l5 5v9l-4 4-2 1h-6l-1-2v-16z" fill="#FEFEFE"/>
<path transform="translate(540,482)" d="m0 0h7l5 5v9l-6 5h-6l-1-1v-17z" fill="#FEFEFE"/>
<path transform="translate(305,476)" d="m0 0h7l1 2-1 29h-7z" fill="#333C44"/>
<path transform="translate(633,476)" d="m0 0h8v30l-1 1h-6l-1-1z" fill="#333C43"/>
<path transform="translate(422,483)" d="m0 0 2 2 3 11h-9l3-9z" fill="#EDF3F8"/>
<path transform="translate(279,494)" d="m0 0h7l1 4-2 3h-6l-1-1v-5z" fill="#FEFEFE"/>
<path transform="translate(246,484)" d="m0 0 2 1 4 11h-9l1-5 2-5z" fill="#FEFEFE"/>
<path transform="translate(691,484)" d="m0 0 2 2 3 10h-9l1-4 2-1z" fill="#FEFEFE"/>
<path transform="translate(279,481)" d="m0 0 6 1v5l-1 1h-5l-1-1v-5z" fill="#FEFEFE"/>
</svg>
